<svg width="30" height="29" viewBox="0 0 30 29" fill="none" xmlns="http://www.w3.org/2000/svg">
<rect x="0.675415" y="0.208984" width="28.6492" height="28.6492" rx="14.3246" fill="#DD1211"/>
<path d="M15.4477 14.9255H15.3917V14.9815V19.4579C15.3917 19.5618 15.3504 19.6614 15.277 19.7349C15.2035 19.8083 15.1039 19.8496 15 19.8496C14.8961 19.8496 14.7965 19.8083 14.7231 19.7349C14.6496 19.6614 14.6083 19.5618 14.6083 19.4579V14.9815V14.9255H14.5524H10.0759C9.97206 14.9255 9.87243 14.8843 9.79897 14.8108C9.72552 14.7373 9.68425 14.6377 9.68425 14.5338C9.68425 14.43 9.72552 14.3303 9.79897 14.2569C9.87243 14.1834 9.97206 14.1421 10.0759 14.1421H14.5524H14.6083V14.0862V9.60975C14.6083 9.50587 14.6496 9.40624 14.7231 9.33279C14.7965 9.25933 14.8961 9.21806 15 9.21806C15.1039 9.21806 15.2035 9.25933 15.277 9.33279C15.3504 9.40624 15.3917 9.50587 15.3917 9.60975V14.0862V14.1421H15.4477H19.9241C20.028 14.1421 20.1276 14.1834 20.2011 14.2569C20.2745 14.3303 20.3158 14.43 20.3158 14.5338C20.3158 14.6377 20.2745 14.7373 20.2011 14.8108C20.1276 14.8843 20.028 14.9255 19.9241 14.9255H15.4477Z" fill="white" stroke="white" stroke-width="0.111911"/>
</svg>
