<svg width="342" height="24" viewBox="0 0 342 24" fill="none" xmlns="http://www.w3.org/2000/svg">
<rect x="0.25" y="11.75" width="96.5" height="0.5" stroke="#C3C3CE" stroke-width="0.5" stroke-dasharray="3 3"/>
<path d="M114.516 17.098C113.592 17.098 112.743 16.8833 111.968 16.454C111.203 16.0247 110.591 15.4273 110.134 14.662C109.686 13.8873 109.462 13.0193 109.462 12.058C109.462 11.0967 109.686 10.2333 110.134 9.468C110.591 8.70267 111.203 8.10533 111.968 7.676C112.743 7.24667 113.592 7.032 114.516 7.032C115.44 7.032 116.285 7.24667 117.05 7.676C117.825 8.10533 118.431 8.70267 118.87 9.468C119.318 10.2333 119.542 11.0967 119.542 12.058C119.542 13.0193 119.318 13.8873 118.87 14.662C118.422 15.4273 117.815 16.0247 117.05 16.454C116.285 16.8833 115.44 17.098 114.516 17.098ZM114.516 14.914C115.3 14.914 115.925 14.6527 116.392 14.13C116.868 13.6073 117.106 12.9167 117.106 12.058C117.106 11.19 116.868 10.4993 116.392 9.986C115.925 9.46333 115.3 9.202 114.516 9.202C113.723 9.202 113.088 9.45867 112.612 9.972C112.145 10.4853 111.912 11.1807 111.912 12.058C111.912 12.926 112.145 13.6213 112.612 14.144C113.088 14.6573 113.723 14.914 114.516 14.914ZM123.268 10.49C123.548 10.0607 123.898 9.72467 124.318 9.482C124.738 9.23 125.205 9.104 125.718 9.104V11.638H125.06C124.463 11.638 124.015 11.7687 123.716 12.03C123.417 12.282 123.268 12.73 123.268 13.374V17H120.874V9.188H123.268V10.49ZM129.423 12.072C129.423 11.1013 129.633 10.238 130.053 9.482C130.473 8.71667 131.056 8.124 131.803 7.704C132.559 7.27467 133.413 7.06 134.365 7.06C135.532 7.06 136.53 7.368 137.361 7.984C138.192 8.6 138.747 9.44 139.027 10.504H136.395C136.199 10.0933 135.919 9.78067 135.555 9.566C135.2 9.35133 134.794 9.244 134.337 9.244C133.6 9.244 133.002 9.50067 132.545 10.014C132.088 10.5273 131.859 11.2133 131.859 12.072C131.859 12.9307 132.088 13.6167 132.545 14.13C133.002 14.6433 133.6 14.9 134.337 14.9C134.794 14.9 135.2 14.7927 135.555 14.578C135.919 14.3633 136.199 14.0507 136.395 13.64H139.027C138.747 14.704 138.192 15.544 137.361 16.16C136.53 16.7667 135.532 17.07 134.365 17.07C133.413 17.07 132.559 16.86 131.803 16.44C131.056 16.0107 130.473 15.418 130.053 14.662C129.633 13.906 129.423 13.0427 129.423 12.072ZM144.049 17.112C143.284 17.112 142.593 16.9487 141.977 16.622C141.37 16.2953 140.89 15.8287 140.535 15.222C140.19 14.6153 140.017 13.906 140.017 13.094C140.017 12.2913 140.194 11.5867 140.549 10.98C140.904 10.364 141.389 9.89267 142.005 9.566C142.621 9.23933 143.312 9.076 144.077 9.076C144.842 9.076 145.533 9.23933 146.149 9.566C146.765 9.89267 147.25 10.364 147.605 10.98C147.96 11.5867 148.137 12.2913 148.137 13.094C148.137 13.8967 147.955 14.606 147.591 15.222C147.236 15.8287 146.746 16.2953 146.121 16.622C145.505 16.9487 144.814 17.112 144.049 17.112ZM144.049 15.04C144.506 15.04 144.894 14.872 145.211 14.536C145.538 14.2 145.701 13.7193 145.701 13.094C145.701 12.4687 145.542 11.988 145.225 11.652C144.917 11.316 144.534 11.148 144.077 11.148C143.61 11.148 143.223 11.316 142.915 11.652C142.607 11.9787 142.453 12.4593 142.453 13.094C142.453 13.7193 142.602 14.2 142.901 14.536C143.209 14.872 143.592 15.04 144.049 15.04ZM154.167 9.104C155.082 9.104 155.81 9.40267 156.351 10C156.902 10.588 157.177 11.4 157.177 12.436V17H154.797V12.758C154.797 12.2353 154.662 11.8293 154.391 11.54C154.12 11.2507 153.756 11.106 153.299 11.106C152.842 11.106 152.478 11.2507 152.207 11.54C151.936 11.8293 151.801 12.2353 151.801 12.758V17H149.407V9.188H151.801V10.224C152.044 9.87867 152.37 9.608 152.781 9.412C153.192 9.20667 153.654 9.104 154.167 9.104ZM163.195 14.97V17H161.977C161.109 17 160.432 16.79 159.947 16.37C159.461 15.9407 159.219 15.2453 159.219 14.284V11.176H158.267V9.188H159.219V7.284H161.613V9.188H163.181V11.176H161.613V14.312C161.613 14.5453 161.669 14.7133 161.781 14.816C161.893 14.9187 162.079 14.97 162.341 14.97H163.195ZM165.732 8.376C165.312 8.376 164.967 8.25467 164.696 8.012C164.435 7.76 164.304 7.452 164.304 7.088C164.304 6.71467 164.435 6.40667 164.696 6.164C164.967 5.912 165.312 5.786 165.732 5.786C166.143 5.786 166.479 5.912 166.74 6.164C167.011 6.40667 167.146 6.71467 167.146 7.088C167.146 7.452 167.011 7.76 166.74 8.012C166.479 8.25467 166.143 8.376 165.732 8.376ZM166.922 9.188V17H164.528V9.188H166.922ZM173.417 9.104C174.332 9.104 175.06 9.40267 175.601 10C176.152 10.588 176.427 11.4 176.427 12.436V17H174.047V12.758C174.047 12.2353 173.912 11.8293 173.641 11.54C173.37 11.2507 173.006 11.106 172.549 11.106C172.092 11.106 171.728 11.2507 171.457 11.54C171.186 11.8293 171.051 12.2353 171.051 12.758V17H168.657V9.188H171.051V10.224C171.294 9.87867 171.62 9.608 172.031 9.412C172.442 9.20667 172.904 9.104 173.417 9.104ZM185.805 9.188V17H183.411V15.936C183.168 16.2813 182.837 16.5613 182.417 16.776C182.006 16.9813 181.549 17.084 181.045 17.084C180.447 17.084 179.92 16.9533 179.463 16.692C179.005 16.4213 178.651 16.034 178.399 15.53C178.147 15.026 178.021 14.4333 178.021 13.752V9.188H180.401V13.43C180.401 13.9527 180.536 14.3587 180.807 14.648C181.077 14.9373 181.441 15.082 181.899 15.082C182.365 15.082 182.734 14.9373 183.005 14.648C183.275 14.3587 183.411 13.9527 183.411 13.43V9.188H185.805ZM194.888 12.968C194.888 13.192 194.874 13.4253 194.846 13.668H189.428C189.466 14.1533 189.62 14.5267 189.89 14.788C190.17 15.04 190.511 15.166 190.912 15.166C191.51 15.166 191.925 14.914 192.158 14.41H194.706C194.576 14.9233 194.338 15.3853 193.992 15.796C193.656 16.2067 193.232 16.5287 192.718 16.762C192.205 16.9953 191.631 17.112 190.996 17.112C190.231 17.112 189.55 16.9487 188.952 16.622C188.355 16.2953 187.888 15.8287 187.552 15.222C187.216 14.6153 187.048 13.906 187.048 13.094C187.048 12.282 187.212 11.5727 187.538 10.966C187.874 10.3593 188.341 9.89267 188.938 9.566C189.536 9.23933 190.222 9.076 190.996 9.076C191.752 9.076 192.424 9.23467 193.012 9.552C193.6 9.86933 194.058 10.322 194.384 10.91C194.72 11.498 194.888 12.184 194.888 12.968ZM192.438 12.338C192.438 11.9273 192.298 11.6007 192.018 11.358C191.738 11.1153 191.388 10.994 190.968 10.994C190.567 10.994 190.226 11.1107 189.946 11.344C189.676 11.5773 189.508 11.9087 189.442 12.338H192.438ZM212.642 7.172L210.08 17H207.182L205.614 10.532L203.99 17H201.092L198.6 7.172H201.162L202.576 14.326L204.326 7.172H206.958L208.638 14.326L210.066 7.172H212.642ZM215.047 8.376C214.627 8.376 214.281 8.25467 214.011 8.012C213.749 7.76 213.619 7.452 213.619 7.088C213.619 6.71467 213.749 6.40667 214.011 6.164C214.281 5.912 214.627 5.786 215.047 5.786C215.457 5.786 215.793 5.912 216.055 6.164C216.325 6.40667 216.461 6.71467 216.461 7.088C216.461 7.452 216.325 7.76 216.055 8.012C215.793 8.25467 215.457 8.376 215.047 8.376ZM216.237 9.188V17H213.843V9.188H216.237ZM222.326 14.97V17H221.108C220.24 17 219.563 16.79 219.078 16.37C218.592 15.9407 218.35 15.2453 218.35 14.284V11.176H217.398V9.188H218.35V7.284H220.744V9.188H222.312V11.176H220.744V14.312C220.744 14.5453 220.8 14.7133 220.912 14.816C221.024 14.9187 221.21 14.97 221.472 14.97H222.326ZM228.461 9.104C229.357 9.104 230.076 9.40267 230.617 10C231.158 10.588 231.429 11.4 231.429 12.436V17H229.049V12.758C229.049 12.2353 228.914 11.8293 228.643 11.54C228.372 11.2507 228.008 11.106 227.551 11.106C227.094 11.106 226.73 11.2507 226.459 11.54C226.188 11.8293 226.053 12.2353 226.053 12.758V17H223.659V6.64H226.053V10.238C226.296 9.89267 226.627 9.61733 227.047 9.412C227.467 9.20667 227.938 9.104 228.461 9.104Z" fill="#1A1A1A"/>
<rect x="245.25" y="11.75" width="96.5" height="0.5" stroke="#C3C3CE" stroke-width="0.5" stroke-dasharray="3 3"/>
</svg>
