<svg width="148" height="72" viewBox="0 0 148 72" fill="none" xmlns="http://www.w3.org/2000/svg">
<path d="M61.0734 49.9614C44.1206 34.3648 25.7551 41.2024 18.6914 46.5708C40.73 26.6513 53.4446 34.7038 68.7022 39.7897C80.9082 43.8583 91.871 34.9864 95.8266 30.0418L99.2172 24.5322C98.2283 24.8147 95.4876 26.1427 92.4361 29.1942C77.1786 46.5708 55.9876 27.4989 51.7494 21.9892C47.5112 16.4796 34.3727 18.5987 29.7107 19.8701C33.7794 15.8015 45.2508 15.3494 50.4779 15.6319C60.6496 14.7843 71.2451 22.8369 76.3309 21.9892C80.3996 18.9377 86.5026 17.8923 89.0455 17.751C88.9042 17.751 88.7065 17.4967 89.0455 16.4796C88.6217 14.7843 80.9929 15.2081 74.6356 14.7843C83.9597 9.69846 95.4028 8.85082 101.336 8.85082C103.032 16.0558 109.813 15.6319 110.66 15.6319C111.338 15.6319 113.768 14.5017 114.899 13.9367L119.984 8.85082V7.15554L110.66 12.2414C108.117 12.2414 105.151 10.1223 105.998 7.57936C106.598 5.78124 113.627 1.22206 114.899 0.374421C115.916 -0.303691 118.713 0.091874 119.984 0.374421C121.397 1.78715 124.901 4.69738 127.613 5.03644C131.004 5.46026 134.394 13.089 134.394 14.3605C134.394 15.3776 142.871 21.0003 147.109 23.6845C146.685 24.1083 144.99 25.7189 141.599 28.7704C136.513 34.7038 124.505 32.0197 119.984 29.1942C115.322 26.2274 106.846 29.1942 105.998 30.8895C105.543 31.7993 103.173 42.3326 101.76 47.4184C114.899 53.7757 130.156 63.9474 131.428 72H125.494C123.121 64.2017 101.336 58.8616 97.0981 58.4378C94.8377 58.4378 89.5541 57.2511 86.5026 52.5043C79.2977 56.7425 71.6689 56.7425 61.0734 49.9614Z" fill="#DD1211"/>
<path d="M29.7109 32.1605C19.5392 41.6541 6.2595 40.3544 0.891113 38.5178C16.5725 34.2796 22.0821 27.0747 33.9491 21.565C44.9684 19.4459 51.7495 25.3794 54.2924 29.1938C50.1955 27.2159 39.5435 25.0403 29.7109 32.1605Z" fill="#BEBFC1"/>
</svg>
