<svg width="24" height="25" viewBox="0 0 24 25" fill="none" xmlns="http://www.w3.org/2000/svg">
<path d="M18 2.5127V4.5127M6 2.5127V4.5127" stroke="#141B34" stroke-width="1.5" stroke-linecap="round" stroke-linejoin="round"/>
<path d="M11.9955 13.5127H12.0045M11.9955 17.5127H12.0045M15.991 13.5127H16M8 13.5127H8.00897M8 17.5127H8.00897" stroke="#141B34" stroke-width="2" stroke-linecap="round" stroke-linejoin="round"/>
<path d="M3.5 8.5127H20.5" stroke="#141B34" stroke-width="1.5" stroke-linecap="round" stroke-linejoin="round"/>
<path d="M2.5 12.7559C2.5 8.39864 2.5 6.21998 3.75212 4.86634C5.00424 3.5127 7.01949 3.5127 11.05 3.5127H12.95C16.9805 3.5127 18.9958 3.5127 20.2479 4.86634C21.5 6.21998 21.5 8.39864 21.5 12.7559V13.2695C21.5 17.6268 21.5 19.8054 20.2479 21.1591C18.9958 22.5127 16.9805 22.5127 12.95 22.5127H11.05C7.01949 22.5127 5.00424 22.5127 3.75212 21.1591C2.5 19.8054 2.5 17.6268 2.5 13.2695V12.7559Z" stroke="#141B34" stroke-width="1.5" stroke-linecap="round" stroke-linejoin="round"/>
<path d="M3 8.5127H21" stroke="#141B34" stroke-width="1.5" stroke-linecap="round" stroke-linejoin="round"/>
</svg>
