<svg width="48" height="48" viewBox="0 0 48 48" fill="none" xmlns="http://www.w3.org/2000/svg">
<rect x="0.5" y="0.5" width="47" height="47" rx="23.5" stroke="#E0E0E5"/>
<g clip-path="url(#clip0_60_1223)">
<path d="M35.7135 24.2763C35.7135 23.4605 35.6474 22.6404 35.5063 21.8379H24.1875V26.4589H30.6692C30.4003 27.9492 29.536 29.2676 28.2705 30.1054V33.1037H32.1375C34.4083 31.0137 35.7135 27.9272 35.7135 24.2763Z" fill="#4285F4"/>
<path d="M24.1874 36.0013C27.4238 36.0013 30.1532 34.9387 32.1418 33.1044L28.2748 30.106C27.1989 30.838 25.81 31.2525 24.1918 31.2525C21.0611 31.2525 18.4067 29.1404 17.4543 26.3008H13.4639V29.3917C15.501 33.4439 19.6502 36.0013 24.1874 36.0013Z" fill="#34A853"/>
<path d="M17.45 26.3007C16.9474 24.8103 16.9474 23.1965 17.45 21.7062V18.6152H13.464C11.762 22.006 11.762 26.0009 13.464 29.3916L17.45 26.3007Z" fill="#FBBC04"/>
<path d="M24.1874 16.7497C25.8982 16.7232 27.5517 17.367 28.7907 18.5487L32.2168 15.1226C30.0474 13.0855 27.1681 11.9655 24.1874 12.0008C19.6502 12.0008 15.501 14.5582 13.4639 18.6148L17.4499 21.7058C18.3979 18.8617 21.0567 16.7497 24.1874 16.7497Z" fill="#EA4335"/>
</g>
<defs>
<clipPath id="clip0_60_1223">
<rect width="24" height="24" fill="white" transform="translate(12 12)"/>
</clipPath>
</defs>
</svg>
