<svg width="24" height="25" viewBox="0 0 24 25" fill="none" xmlns="http://www.w3.org/2000/svg">
<path d="M2.35139 13.7252C1.99837 11.4279 1.82186 10.2793 2.25617 9.2611C2.69047 8.24284 3.65403 7.54615 5.58114 6.15278L7.02099 5.11172C9.41829 3.37839 10.6169 2.51172 12 2.51172C13.383 2.51172 14.5817 3.37839 16.979 5.11172L18.4188 6.15278C20.346 7.54615 21.3095 8.24284 21.7438 9.2611C22.1781 10.2793 22.0016 11.4279 21.6486 13.7252L21.3476 15.6841C20.8471 18.9406 20.5969 20.5689 19.429 21.5403C18.2611 22.5117 16.5536 22.5117 13.1388 22.5117H10.8612C7.44634 22.5117 5.73891 22.5117 4.571 21.5403C3.40309 20.5689 3.15287 18.9406 2.65243 15.6841L2.35139 13.7252Z" fill="#DD1211" stroke="#DD1211" stroke-width="1.41758" stroke-linejoin="round"/>
<path d="M14.9995 17.5117C14.2 18.1341 13.1497 18.5117 11.9995 18.5117C10.8492 18.5117 9.79904 18.1341 8.99951 17.5117" stroke="white" stroke-width="1.41758" stroke-linecap="round"/>
</svg>
