<svg width="14" height="15" viewBox="0 0 14 15" fill="none" xmlns="http://www.w3.org/2000/svg">
<path d="M4.71254 8.76403C4.73684 8.6138 4.81393 8.47717 4.92995 8.3787C5.04598 8.28024 5.19333 8.22639 5.34551 8.22685H6.66158C9.24807 8.22685 11.2723 7.18474 11.8641 4.1703C11.882 4.08077 11.9098 3.90888 11.9098 3.90888C12.0781 2.79335 11.9089 2.03683 11.301 1.35015C10.6331 0.593627 9.42444 0.269533 7.87828 0.269533H3.39109C3.23876 0.269191 3.09126 0.323036 2.97498 0.421445C2.85869 0.519853 2.78119 0.65641 2.75633 0.806706L0.887868 12.5627C0.879456 12.6175 0.883012 12.6734 0.898292 12.7266C0.913573 12.7799 0.940213 12.8292 0.976379 12.8711C1.01255 12.9131 1.05738 12.9467 1.10778 12.9696C1.15819 12.9926 1.21298 13.0044 1.26837 13.0041H4.03839L4.73403 8.62615L4.71254 8.76403Z" fill="#0D47A1"/>
<path d="M6.66191 9.01868H5.48192L4.60095 14.5945H6.51508C6.64851 14.595 6.77773 14.5478 6.87948 14.4615C6.98123 14.3751 7.04884 14.2553 7.07016 14.1236L7.09254 14.0054L7.53302 11.2381L7.56167 11.0859C7.58296 10.9543 7.65044 10.8347 7.75201 10.7484C7.85357 10.662 7.98257 10.6148 8.11585 10.615H8.46591C10.7283 10.615 12.4992 9.70358 13.0167 7.06696C13.2244 6.00873 13.1241 5.12149 12.6111 4.48047C11.9683 7.44835 9.91717 9.01868 6.66191 9.01868Z" fill="#0D47A1"/>
</svg>
