<svg width="24" height="25" viewBox="0 0 24 25" fill="none" xmlns="http://www.w3.org/2000/svg">
<path d="M6.57757 15.9943C5.1628 16.8367 1.45336 18.5568 3.71266 20.7093C4.81631 21.7607 6.04549 22.5127 7.59087 22.5127H16.4091C17.9545 22.5127 19.1837 21.7607 20.2873 20.7093C22.5466 18.5568 18.8372 16.8367 17.4224 15.9943C14.1048 14.0188 9.89519 14.0188 6.57757 15.9943Z" stroke="#141B34" stroke-width="1.5" stroke-linecap="round" stroke-linejoin="round"/>
<path d="M16.5 7.0127C16.5 9.49798 14.4853 11.5127 12 11.5127C9.51472 11.5127 7.5 9.49798 7.5 7.0127C7.5 4.52742 9.51472 2.5127 12 2.5127C14.4853 2.5127 16.5 4.52742 16.5 7.0127Z" stroke="#141B34" stroke-width="1.5"/>
</svg>
