<svg width="16" height="15" viewBox="0 0 16 15" fill="none" xmlns="http://www.w3.org/2000/svg">
<g clip-path="url(#clip0_218_369)">
<path d="M15.1076 2.23481L14.2385 3.39397C14.1411 3.52384 13.9465 3.52375 13.8491 3.39387L12.9802 2.2349C12.8598 2.07433 12.9743 1.8452 13.1749 1.8452H13.4444V0.304688H14.6433V1.84523H14.9128C15.1134 1.84523 15.228 2.07424 15.1076 2.23481Z" fill="#F761A6"/>
<path d="M3.01777 1.52595L2.1488 0.366968C2.05144 0.237098 1.8568 0.237037 1.75944 0.366877L0.890317 1.52607C0.769935 1.68661 0.884502 1.91565 1.08511 1.91565H1.35464V3.45619H2.5535V1.91565H2.82301C3.02361 1.91565 3.13815 1.68649 3.01777 1.52595Z" fill="#35C9AD"/>
<path d="M11.5251 5.97852H13.5412V12.6138H11.5251V5.97852Z" fill="#E0E9EF"/>
<path d="M11.1265 5.97852H13.9413V7.19629H11.1265V5.97852ZM11.1265 11.8543H13.9413V13.0721H11.1265V11.8543Z" fill="#AC9EF9"/>
<path d="M2.45691 5.97852H4.47298V12.6138H2.45691V5.97852Z" fill="#E0E9EF"/>
<path d="M2.05823 5.97852H4.87311V7.19629H2.05823V5.97852ZM2.05823 11.8543H4.87311V13.0721H2.05823V11.8543Z" fill="#AC9EF9"/>
<path d="M1.43225 13.0732H14.5683V14.5955H1.43225V13.0732Z" fill="#6262F4"/>
<path d="M9.33437 11.7266H6.66467C6.30123 11.7266 6.00659 12.0212 6.00659 12.3846V12.4134C6.00659 12.7768 6.30123 13.0715 6.66467 13.0715H9.33437C9.69781 13.0715 9.99245 12.7768 9.99245 12.4134V12.3846C9.99245 12.0212 9.69781 11.7266 9.33437 11.7266Z" fill="#FDBF38"/>
<path d="M9.31691 10.3818H6.64721C6.28377 10.3818 5.98914 10.6765 5.98914 11.0399V11.0687C5.98914 11.4321 6.28377 11.7267 6.64721 11.7267H9.31691C9.68036 11.7267 9.97499 11.4321 9.97499 11.0687V11.0399C9.97499 10.6764 9.68036 10.3818 9.31691 10.3818Z" fill="#FFD085"/>
<path d="M7.98184 7.38672C7.16687 7.38644 6.50644 8.05685 6.50671 8.88413C6.50699 9.71141 7.16788 10.3823 7.98285 10.3826C8.79782 10.3829 9.45826 9.71245 9.45798 8.88517C9.45771 8.05789 8.79681 7.38702 7.98184 7.38672Z" fill="#FDBF38"/>
<path d="M8.47742 9.19312C8.47742 8.94538 8.27706 8.74379 8.03076 8.74379H7.9326C7.84151 8.74379 7.7674 8.6685 7.7674 8.57597C7.7674 8.48341 7.84151 8.40815 7.9326 8.40815H8.26506C8.30239 8.40815 8.33818 8.39332 8.36458 8.36692C8.39097 8.34053 8.4058 8.30473 8.4058 8.26741C8.4058 8.23008 8.39097 8.19429 8.36458 8.16789C8.33818 8.1415 8.30239 8.12667 8.26506 8.12667H8.12243V8.00109C8.12243 7.96376 8.1076 7.92797 8.08121 7.90157C8.05481 7.87518 8.01902 7.86035 7.98169 7.86035C7.94437 7.86035 7.90857 7.87518 7.88218 7.90157C7.85578 7.92797 7.84096 7.96376 7.84096 8.00109V8.13625C7.63848 8.17892 7.48596 8.35981 7.48596 8.57597C7.48596 8.82371 7.68632 9.02527 7.93263 9.02527H8.03079C8.12188 9.02527 8.19598 9.10056 8.19598 9.19309C8.19598 9.28562 8.12188 9.36092 8.03079 9.36092H7.69832C7.661 9.36092 7.6252 9.37574 7.59881 9.40214C7.57241 9.42853 7.55758 9.46433 7.55758 9.50165C7.55758 9.53898 7.57241 9.57477 7.59881 9.60117C7.6252 9.62756 7.661 9.64239 7.69832 9.64239H7.84096V9.76797C7.84096 9.8053 7.85578 9.8411 7.88218 9.86749C7.90857 9.89388 7.94437 9.90871 7.98169 9.90871C8.01902 9.90871 8.05481 9.89388 8.08121 9.86749C8.1076 9.8411 8.12243 9.8053 8.12243 9.76797V9.63281C8.3249 9.59017 8.47742 9.40928 8.47742 9.19312Z" fill="white"/>
<path d="M7.98284 1.25977L1.41479 4.76088V5.97865H14.5509V4.76088L7.98284 1.25977Z" fill="#6262F4"/>
<path d="M6.00817 4.22014H5.36923C5.32864 4.22014 5.28971 4.20402 5.26101 4.17532C5.23231 4.14662 5.21619 4.10769 5.21619 4.0671C5.21619 4.02651 5.23231 3.98759 5.26101 3.95889C5.28971 3.93019 5.32864 3.91406 5.36923 3.91406H6.00817C6.04876 3.91406 6.08769 3.93019 6.11639 3.95889C6.14509 3.98759 6.16121 4.02651 6.16121 4.0671C6.16121 4.10769 6.14509 4.14662 6.11639 4.17532C6.08769 4.20402 6.04876 4.22014 6.00817 4.22014ZM10.5976 4.22014H9.95864C9.91805 4.22014 9.87913 4.20402 9.85043 4.17532C9.82172 4.14662 9.8056 4.10769 9.8056 4.0671C9.8056 4.02651 9.82172 3.98759 9.85043 3.95889C9.87913 3.93019 9.91805 3.91406 9.95864 3.91406H10.5976C10.6382 3.91406 10.6771 3.93019 10.7058 3.95889C10.7345 3.98759 10.7507 4.02651 10.7507 4.0671C10.7507 4.10769 10.7345 4.14662 10.7058 4.17532C10.6771 4.20402 10.6382 4.22014 10.5976 4.22014Z" fill="white"/>
<path d="M7.98358 5.00549C8.50178 5.00549 8.92187 4.5854 8.92187 4.0672C8.92187 3.54899 8.50178 3.12891 7.98358 3.12891C7.46538 3.12891 7.04529 3.54899 7.04529 4.0672C7.04529 4.5854 7.46538 5.00549 7.98358 5.00549Z" fill="white"/>
<path d="M15.0092 14.5942H0.990687C0.950098 14.5942 0.911172 14.578 0.882471 14.5493C0.85377 14.5206 0.837646 14.4817 0.837646 14.4411C0.837646 14.4005 0.85377 14.3616 0.882471 14.3329C0.911172 14.3042 0.950098 14.2881 0.990687 14.2881H15.0092C15.0498 14.2881 15.0887 14.3042 15.1174 14.3329C15.1461 14.3616 15.1623 14.4005 15.1623 14.4411C15.1623 14.4817 15.1461 14.5206 15.1174 14.5493C15.0887 14.578 15.0498 14.5942 15.0092 14.5942Z" fill="#9BB6C6"/>
</g>
<defs>
<clipPath id="clip0_218_369">
<rect width="14.3246" height="14.3246" fill="white" transform="translate(0.837646 0.269531)"/>
</clipPath>
</defs>
</svg>
