<svg width="136" height="136" viewBox="0 0 136 136" fill="none" xmlns="http://www.w3.org/2000/svg">
<mask id="mask0_62_464" style="mask-type:alpha" maskUnits="userSpaceOnUse" x="0" y="0" width="136" height="136">
<mask id="mask1_62_464" style="mask-type:alpha" maskUnits="userSpaceOnUse" x="0" y="0" width="136" height="136">
<circle cx="68" cy="68" r="67.8444" fill="black" stroke="black" stroke-width="0.311213"/>
</mask>
<g mask="url(#mask1_62_464)">
<rect x="-7.77637" y="-23.3408" width="151.872" height="186.728" fill="black"/>
</g>
</mask>
<g mask="url(#mask0_62_464)">
<path d="M122.16 208.484C122.16 208.484 120.849 172.712 115.672 145.185L118.304 142.448L115.975 135.57C113.7 126.519 111.226 118.537 109.356 116.639C104.871 112.088 92.0648 108.352 92.0648 108.352L88.92 107.283C90.1652 106.251 91.6139 104.689 92.8763 102.804C99.8366 92.4096 99.9597 83.2285 97.9162 69.248C97.4949 66.3655 96.6713 63.5386 96.4956 60.6308C96.1881 55.5422 98.2857 50.5357 98.0597 45.4429C97.6427 36.0505 92.8813 26.7373 87.6542 20.2143C85.7137 17.3233 83.3142 14.8683 80.4696 13.2209C80.3024 13.1107 80.1306 13.0157 79.9551 12.934C75.7258 10.6726 70.5517 10.1792 64.4744 12.6211C59.7918 10.5089 53.3887 11.7993 47.8649 16.0009C47.8513 16.0102 47.8362 16.0171 47.8228 16.0266C44.6717 18.2461 41.598 21.6256 39.1052 25.9018C34.533 32.8592 30.1789 42.3372 29.7544 51.8978C29.5283 56.9906 31.626 61.9971 31.3185 67.0857C31.1428 69.9936 30.3575 72.8262 29.8979 75.703C28.9594 81.5787 29.4008 87.6704 31.1768 93.3494C32.7099 98.2514 35.2706 102.893 38.974 106.451C39.7479 107.195 40.7894 107.965 41.9521 108.705L38.1472 110C38.1472 110 30.2884 112.088 25.8042 116.639C23.9337 118.537 21.46 126.519 19.1843 135.57C19.2758 135.695 19.3696 135.819 19.4615 135.943L19.1772 135.57L16.8486 142.448L19.4869 145.191C14.3102 172.718 13 208.484 13 208.484H31.2212L32.0207 180.551C33.9899 194.689 36.3023 208.484 36.3023 208.484H99.6651C99.6651 208.484 101.654 197.655 103.264 184.928L103.939 208.484L122.16 208.484Z" fill="#F7B8B2"/>
<path d="M82.0835 60.1104C76.962 60.1104 72.8105 63.8254 72.8105 68.4085C72.8105 69.9495 73.2884 71.3872 74.1063 72.6237C74.1372 72.6117 74.1715 72.6003 74.2014 72.5881C74.3744 72.5179 74.5716 72.6014 74.6418 72.7745C74.7041 72.9281 74.6408 73.0956 74.5058 73.1816C76.1844 75.3114 78.9495 76.7064 82.0835 76.7064C83.8346 76.7064 85.4665 76.264 86.8637 75.509C86.9619 75.1343 87.0538 74.7547 87.1416 74.3714C87.1549 74.3132 87.1659 74.2531 87.179 74.1947C87.231 73.9621 87.2795 73.7264 87.3278 73.4907C87.3545 73.36 87.3844 73.232 87.4101 73.1003C87.4157 73.0716 87.4201 73.0418 87.4256 73.0131C87.5246 72.5028 87.618 71.9878 87.7002 71.4641C87.7003 71.4633 87.7005 71.4625 87.7006 71.4617C87.7664 71.0418 87.8263 70.6173 87.8813 70.189C87.9242 69.8566 87.9609 69.5196 87.9977 69.1826C88.0078 69.089 88.0197 68.9968 88.0293 68.9029C88.071 68.5013 88.1069 68.0955 88.14 67.6877C88.1416 67.6686 88.1434 67.6497 88.1449 67.6306C88.156 67.4902 88.1637 67.3476 88.1738 67.2066C88.1948 66.9161 88.2167 66.6262 88.2336 66.333C88.265 65.7939 88.2894 65.2502 88.3069 64.702C88.3203 64.2815 88.3293 63.8587 88.3348 63.4333C88.3383 63.1397 88.3445 62.8478 88.3445 62.552C88.3445 62.4678 88.3455 62.3853 88.3455 62.301C86.695 60.945 84.5008 60.1104 82.0835 60.1104Z" fill="#F6B3B0"/>
<path d="M82.0836 60.9141C77.4582 60.9141 73.7087 64.2696 73.7087 68.4087C73.7087 72.5477 77.4581 75.9031 82.0836 75.9031C83.9866 75.9031 85.7355 75.3285 87.1418 74.3715C87.1551 74.3133 87.1661 74.2532 87.1792 74.1948C87.2312 73.9622 87.2796 73.7266 87.3279 73.4909C87.3546 73.3602 87.3846 73.2321 87.4103 73.1004C87.4159 73.0717 87.4202 73.042 87.4257 73.0133C87.5247 72.503 87.6182 71.9879 87.7003 71.4642C87.7005 71.4634 87.7006 71.4626 87.7007 71.4618C87.7665 71.0419 87.8264 70.6175 87.8814 70.1892C87.9243 69.8568 87.9611 69.5197 87.9979 69.1827C88.008 69.0891 88.0198 68.997 88.0294 68.9031C88.0711 68.5015 88.1071 68.0957 88.1402 67.6879C88.1418 67.6688 88.1435 67.6499 88.145 67.6308C88.1561 67.4904 88.1639 67.3478 88.174 67.2068C88.195 66.9163 88.2169 66.6264 88.2338 66.3332C88.2652 65.7941 88.2895 65.2504 88.307 64.7022C88.3204 64.2817 88.3295 63.8589 88.335 63.4335C86.8008 61.8911 84.5722 60.9141 82.0836 60.9141Z" fill="#F5AFAE"/>
<path d="M47.8226 60.1104C46.5454 60.1104 45.3313 60.3446 44.2258 60.7646C44.2503 61.0507 44.2788 61.3304 44.3111 61.6037C44.3454 61.893 44.3828 62.177 44.4244 62.4542C44.4678 62.7432 44.5153 63.0253 44.5653 63.3035C44.617 63.5915 44.6711 63.8752 44.7281 64.1544C44.7875 64.4454 44.8494 64.7324 44.9127 65.017C44.9798 65.3187 45.0483 65.618 45.1174 65.9161C45.1945 66.2478 45.2717 66.579 45.3482 66.9112C45.615 68.0693 45.8692 69.2459 46.0429 70.5514C46.0857 70.8733 46.1222 71.2053 46.1542 71.5444C46.1817 71.836 46.2066 72.1319 46.2247 72.4386C46.2413 72.7184 46.2489 73.0037 46.2582 73.2879C46.2673 73.5656 46.274 73.8451 46.277 74.1268C46.28 74.4015 46.284 74.6754 46.282 74.9537C46.2801 75.2197 46.2732 75.4898 46.2675 75.7588C46.2617 76.0307 46.2559 76.303 46.247 76.5778C46.7595 76.658 47.2842 76.7065 47.8227 76.7065C52.9439 76.7065 57.0956 72.9914 57.0956 68.4086C57.0955 63.8254 52.9438 60.1104 47.8226 60.1104Z" fill="#F6B3B0"/>
<path d="M47.8228 60.9141C46.5687 60.9141 45.3795 61.1617 44.3113 61.6039C44.3456 61.8932 44.383 62.1772 44.4246 62.4544C44.468 62.7434 44.5155 63.0255 44.5655 63.3037C44.6172 63.5917 44.6713 63.8754 44.7283 64.1546C44.7877 64.4456 44.8496 64.7326 44.9129 65.0172C44.98 65.3189 45.0485 65.6182 45.1176 65.9163C45.1947 66.248 45.2719 66.5792 45.3484 66.9114C45.6152 68.0695 45.8694 69.2461 46.0431 70.5516C46.0859 70.8735 46.1224 71.2055 46.1544 71.5446C46.1819 71.8362 46.2068 72.1321 46.2249 72.4388C46.2415 72.7186 46.2491 73.0038 46.2584 73.288C46.2675 73.5657 46.2742 73.8452 46.2772 74.1269C46.2802 74.4016 46.2842 74.6755 46.2822 74.9538C46.2803 75.2198 46.2734 75.4899 46.2677 75.7589C46.7727 75.8456 47.2893 75.9031 47.8229 75.9031C52.4482 75.9031 56.1977 72.5477 56.1977 68.4087C56.1976 64.2696 52.4481 60.9141 47.8228 60.9141Z" fill="#F5AFAE"/>
<path d="M64.4279 97.1857C72.5943 96.4042 76.4224 92.3223 78.2037 89.0078C75.0029 91.18 70.9481 92.4087 65.8905 92.4087C61.471 92.4087 57.6477 91.4597 54.4529 89.6719C56.4913 92.86 59.7321 96.3584 64.4279 97.1857Z" fill="#E19592"/>
<path d="M46.5305 50.445C51.9419 48.2288 55.1015 49.9047 55.5186 49.7209C57.2967 48.9378 57.452 47.2911 55.7107 46.3737C55.4151 46.2155 48.7562 45.7849 46.5304 48.4077C45.5947 49.5104 45.9214 50.6945 46.5305 50.445Z" fill="#27224F"/>
<path d="M74.502 49.7209C74.9191 49.9047 78.0788 48.2288 83.4903 50.445C84.0994 50.6945 84.4261 49.5104 83.4903 48.4076C81.2645 45.7849 74.6054 46.2155 74.3099 46.3736C72.5686 47.2911 72.7239 48.9378 74.502 49.7209Z" fill="#27224F"/>
<path d="M89.3171 64.0989C89.481 64.1378 89.6489 64.0498 89.7102 63.893L89.7138 63.8841C89.7366 63.8273 89.8706 63.5211 90.0776 63.2517C90.1803 63.1169 90.3006 62.9927 90.4228 62.9101C90.5463 62.8267 90.6629 62.785 90.7859 62.7847C90.9464 62.7856 91.1631 62.8547 91.4609 63.1498C91.5929 63.2819 91.8071 63.2819 91.9393 63.1499C92.0713 63.0179 92.0713 62.8037 91.9393 62.6717C91.5652 62.2948 91.1691 62.1075 90.7859 62.1084C90.4798 62.1082 90.2127 62.2259 90.0018 62.3795C89.9649 62.4065 89.9336 62.4374 89.8994 62.4663C89.9954 61.8421 90.1231 61.1662 90.2875 60.5245C90.4342 59.9508 90.6097 59.4057 90.8099 58.9583C91.0085 58.5105 91.2376 58.164 91.452 57.9851C91.5331 57.9187 91.5795 57.9093 91.6239 57.9079C91.6771 57.9071 91.7611 57.9337 91.8686 58.0263C92.0286 58.1619 92.2078 58.4327 92.333 58.7629C92.4601 59.0927 92.5383 59.4803 92.5379 59.8472C92.5381 60.0958 92.5025 60.3342 92.4294 60.5414C92.3674 60.7176 92.4599 60.9107 92.6361 60.9727C92.8123 61.0347 93.0055 60.9422 93.0675 60.7659C93.1709 60.4716 93.2142 60.159 93.2143 59.8472C93.213 59.2329 93.0489 58.6202 92.7877 58.134C92.6559 57.891 92.4997 57.6784 92.3108 57.5145C92.1236 57.3525 91.8909 57.2323 91.6241 57.2315C91.4072 57.2301 91.19 57.3186 91.015 57.4691C90.6745 57.7604 90.417 58.1841 90.1926 58.6823C89.5291 60.174 89.1867 62.3921 89.0583 63.7386C89.0427 63.906 89.1533 64.06 89.3171 64.0989Z" fill="#E19592"/>
<path d="M54.6484 55.934C54.6427 54.6365 53.7548 53.5959 52.6634 53.5967C51.6013 53.6097 50.7264 54.6622 50.7414 55.9731C50.753 57.2581 51.6404 58.3037 52.7076 58.291C53.7947 58.2827 54.665 57.2221 54.6484 55.934Z" fill="#27224F"/>
<path d="M79.7364 55.9229C79.7305 54.628 78.8322 53.5919 77.7631 53.5967C76.6738 53.6001 75.8136 54.6586 75.8251 55.949C75.8306 57.2517 76.713 58.2943 77.8158 58.2842C78.8721 58.276 79.7526 57.2165 79.7364 55.9229Z" fill="#27224F"/>
<path d="M63.9991 66.2085C64.6861 66.5731 65.5833 66.6977 66.4749 66.7C67.1741 66.6997 67.8679 66.6184 68.4469 66.4848C68.7367 66.4178 68.9977 66.3379 69.2205 66.2442C69.4434 66.1487 69.6292 66.0465 69.7768 65.8948C69.9057 65.7596 69.9006 65.5456 69.7654 65.4167C69.6302 65.2878 69.4162 65.2929 69.2873 65.4281C69.2521 65.468 69.1324 65.5492 68.958 65.6209C68.4307 65.8457 67.4416 66.0258 66.4747 66.0236C65.6515 66.0259 64.8349 65.893 64.3184 65.6124C64.1538 65.5242 63.9488 65.5861 63.8606 65.7507C63.7725 65.9152 63.8345 66.1202 63.9991 66.2085Z" fill="#E19592"/>
<path d="M63.3373 78.9126C64.0243 79.2772 64.9214 79.4018 65.8132 79.4041C66.5124 79.4038 67.2062 79.3225 67.7852 79.1889C68.075 79.1219 68.336 79.042 68.5588 78.9483C68.7817 78.8528 68.9675 78.7506 69.1151 78.5989C69.2439 78.4637 69.2389 78.2497 69.1039 78.1208C68.9687 77.9919 68.7547 77.9969 68.6258 78.1321C68.5905 78.172 68.4708 78.2532 68.2964 78.3249C67.7691 78.5497 66.7801 78.7298 65.8132 78.7276C64.9899 78.7299 64.1734 78.5969 63.6568 78.3163C63.4922 78.2281 63.2872 78.29 63.1989 78.4547C63.1107 78.6194 63.1726 78.8244 63.3373 78.9126Z" fill="#E19592"/>
<path d="M68.3657 60.6222C68.5272 60.5282 68.5818 60.3212 68.4879 60.1598C67.3388 58.1891 66.9582 55.8861 66.9594 54.1606C66.9592 53.5301 67.0099 52.977 67.0881 52.5528C67.127 52.3409 67.1729 52.1611 67.2202 52.0235C67.2664 51.8862 67.3179 51.7904 67.3452 51.7563C67.4585 51.6079 67.4301 51.3956 67.2817 51.2823C67.1333 51.169 66.921 51.1974 66.8077 51.3458C66.7105 51.4746 66.6429 51.6244 66.5803 51.8042C66.3985 52.3397 66.2843 53.1589 66.283 54.1606C66.2842 55.9811 66.6745 58.3857 67.9033 60.5C67.9973 60.6614 68.2042 60.7161 68.3657 60.6222Z" fill="#E19592"/>
<path d="M82.0835 61.7178C77.954 61.7178 74.6067 64.7134 74.6067 68.4088C74.6067 72.1039 77.9539 75.0997 82.0835 75.0997C84.1694 75.0997 86.0538 74.3336 87.4101 73.1007C87.4157 73.072 87.42 73.0422 87.4255 73.0135C87.5245 72.5032 87.618 71.9882 87.7001 71.4645C87.7003 71.4637 87.7004 71.4629 87.7005 71.4621C87.7663 71.0422 87.8262 70.6177 87.8812 70.1894C87.9241 69.857 87.9609 69.52 87.9977 69.183C88.0078 69.0894 88.0196 68.9972 88.0292 68.9033C88.0709 68.5017 88.1069 68.0959 88.14 67.6881C88.1416 67.669 88.1433 67.6501 88.1448 67.631C88.1559 67.4906 88.1637 67.348 88.1738 67.207C88.1948 66.9165 88.2167 66.6266 88.2336 66.3334C88.265 65.7943 88.2893 65.2506 88.3068 64.7024C86.9664 62.9036 84.6804 61.7178 82.0835 61.7178Z" fill="#F5AAAC"/>
<path d="M82.0835 62.5215C78.4501 62.5215 75.5046 65.1574 75.5046 68.409C75.5046 71.6604 78.4501 74.2963 82.0835 74.2963C84.4659 74.2963 86.5462 73.1594 87.7006 71.4623C87.7664 71.0424 87.8263 70.6179 87.8813 70.1896C87.9242 69.8572 87.961 69.5202 87.9978 69.1832C88.0079 69.0896 88.0197 68.9974 88.0293 68.9035C88.071 68.5019 88.107 68.0961 88.1402 67.6883C88.1418 67.6692 88.1434 67.6503 88.1449 67.6312C88.156 67.4908 88.1639 67.3482 88.174 67.2072C88.195 66.9167 88.2168 66.6268 88.2337 66.3336C87.295 64.1075 84.8992 62.5215 82.0835 62.5215Z" fill="#F4A6A9"/>
<path d="M82.0837 63.3252C78.9461 63.3252 76.4026 65.6012 76.4026 68.4089C76.4026 71.2166 78.9461 73.4926 82.0837 73.4926C85.221 73.4926 87.7645 71.2166 87.7645 68.4089C87.7645 65.6012 85.221 63.3252 82.0837 63.3252Z" fill="#F4A1A7"/>
<path d="M82.0835 64.1289C79.4418 64.1289 77.3005 66.0453 77.3005 68.4092C77.3005 70.773 79.4418 72.6892 82.0835 72.6892C84.7249 72.6892 86.8662 70.773 86.8662 68.4092C86.8662 66.0453 84.725 64.1289 82.0835 64.1289Z" fill="#F39DA4"/>
<path d="M82.0836 64.9326C79.938 64.9326 78.1987 66.489 78.1987 68.4091C78.1987 70.3291 79.938 71.8855 82.0836 71.8855C84.2289 71.8855 85.9685 70.329 85.9685 68.4091C85.9685 66.489 84.2289 64.9326 82.0836 64.9326Z" fill="#F298A2"/>
<path d="M82.0837 65.7354C80.4339 65.7354 79.0967 66.9321 79.0967 68.4084C79.0967 69.8846 80.434 71.0812 82.0837 71.0812C83.7332 71.0812 85.0705 69.8847 85.0705 68.4084C85.0705 66.9322 83.7332 65.7354 82.0837 65.7354Z" fill="#F2939F"/>
<path d="M82.0835 66.5391C80.9299 66.5391 79.9946 67.3761 79.9946 68.4086C79.9946 69.4409 80.9299 70.2779 82.0835 70.2779C83.2371 70.2779 84.1724 69.4409 84.1724 68.4086C84.1724 67.3761 83.2371 66.5391 82.0835 66.5391Z" fill="#F18F9D"/>
<path d="M47.8228 61.7178C46.5975 61.7178 45.4445 61.9863 44.4246 62.4545C44.468 62.7435 44.5155 63.0256 44.5655 63.3038C44.6172 63.5918 44.6713 63.8755 44.7283 64.1547C44.7877 64.4457 44.8496 64.7327 44.9129 65.0173C44.98 65.319 45.0485 65.6183 45.1176 65.9164C45.1947 66.2481 45.2719 66.5793 45.3484 66.9115C45.6152 68.0696 45.8694 69.2462 46.0431 70.5517C46.0859 70.8736 46.1224 71.2056 46.1544 71.5447C46.1819 71.8363 46.2068 72.1322 46.2249 72.4389C46.2415 72.7187 46.2491 73.004 46.2584 73.2882C46.2675 73.5659 46.2742 73.8454 46.2772 74.1271C46.2802 74.4018 46.2842 74.6757 46.2822 74.954C46.7793 75.0484 47.2941 75.0997 47.8229 75.0997C51.9521 75.0997 55.2996 72.104 55.2996 68.4088C55.2995 64.7134 51.952 61.7178 47.8228 61.7178Z" fill="#F5AAAC"/>
<path d="M47.8227 62.5215C46.635 62.5215 45.5267 62.8109 44.5654 63.304C44.6171 63.592 44.6712 63.8757 44.7282 64.1549C44.7876 64.4459 44.8495 64.7329 44.9128 65.0175C44.9799 65.3192 45.0484 65.6185 45.1175 65.9166C45.1946 66.2483 45.2718 66.5795 45.3483 66.9117C45.6151 68.0698 45.8693 69.2464 46.043 70.5519C46.0858 70.8738 46.1223 71.2058 46.1543 71.5449C46.1818 71.8365 46.2067 72.1324 46.2248 72.4391C46.2414 72.7189 46.249 73.0042 46.2583 73.2884C46.2674 73.5661 46.2741 73.8456 46.2771 74.1273C46.7734 74.2346 47.2896 74.2963 47.8228 74.2963C51.4562 74.2963 54.4017 71.6604 54.4017 68.409C54.4016 65.1573 51.4561 62.5215 47.8227 62.5215Z" fill="#F4A6A9"/>
<path d="M47.8228 63.3252C46.6788 63.3252 45.6193 63.634 44.7283 64.1548C44.7877 64.4458 44.8496 64.7328 44.9129 65.0174C44.98 65.3191 45.0485 65.6184 45.1176 65.9165C45.1947 66.2482 45.2719 66.5794 45.3484 66.9116C45.6152 68.0697 45.8694 69.2463 46.0431 70.5518C46.0859 70.8737 46.1224 71.2057 46.1544 71.5448C46.1819 71.8364 46.2068 72.1323 46.2249 72.439C46.2415 72.7188 46.2491 73.0041 46.2584 73.2883C46.7562 73.4164 47.2786 73.4926 47.8228 73.4926C50.9603 73.4926 53.5036 71.2166 53.5036 68.4089C53.5036 65.6012 50.9603 63.3252 47.8228 63.3252Z" fill="#F4A1A7"/>
<path d="M47.8227 64.1289C46.7264 64.1289 45.7195 64.4625 44.9128 65.0177C44.9799 65.3194 45.0484 65.6187 45.1175 65.9168C45.1946 66.2485 45.2718 66.5797 45.3483 66.9119C45.6151 68.07 45.8693 69.2466 46.043 70.5521C46.0858 70.874 46.1223 71.206 46.1543 71.5451C46.1818 71.8367 46.2067 72.1326 46.2248 72.4393C46.7252 72.5982 47.2615 72.6892 47.8227 72.6892C50.4641 72.6892 52.6056 70.773 52.6056 68.4092C52.6056 66.0453 50.4641 64.1289 47.8227 64.1289Z" fill="#F39DA4"/>
<path d="M47.8226 64.9326C46.7702 64.9326 45.8171 65.3085 45.1174 65.9167C45.1945 66.2484 45.2717 66.5796 45.3482 66.9118C45.615 68.0699 45.8692 69.2465 46.0429 70.552C46.0857 70.8739 46.1222 71.2059 46.1542 71.545C46.6603 71.761 47.2245 71.8855 47.8226 71.8855C49.9682 71.8855 51.7074 70.329 51.7074 68.4091C51.7074 66.489 49.9682 64.9326 47.8226 64.9326Z" fill="#F298A2"/>
<path d="M47.8227 65.7354C46.7931 65.7354 45.8853 66.2018 45.3484 66.9112C45.6152 68.0692 45.8694 69.2459 46.0431 70.5514C46.5405 70.8828 47.155 71.0813 47.8228 71.0813C49.4722 71.0813 50.8095 69.8847 50.8095 68.4085C50.8094 66.9322 49.4721 65.7354 47.8227 65.7354Z" fill="#F2939F"/>
<path d="M49.9115 68.4086C49.9115 67.3762 48.9762 66.5391 47.8226 66.5391C46.669 66.5391 45.7336 67.3761 45.7336 68.4086C45.7336 69.4409 46.6689 70.2779 47.8226 70.2779C48.9762 70.2779 49.9115 69.4409 49.9115 68.4086Z" fill="#F18F9D"/>
<path d="M74.642 72.7753C74.5718 72.6022 74.3746 72.5188 74.2016 72.5889C74.1717 72.6011 74.1373 72.6125 74.1064 72.6245C73.9901 72.6696 73.8671 72.7137 73.7375 72.7565C73.5652 72.6466 73.304 72.5445 72.9812 72.4519C71.7594 72.1015 69.7207 71.8857 68.812 71.8857C67.8231 71.8857 66.9761 72.1863 66.5971 72.6163C66.2184 72.1863 65.3711 71.8857 64.3824 71.8857C63.0413 71.8857 59.2331 72.3547 59.2331 73.0347C59.2331 73.0612 59.2484 73.0882 59.2703 73.1156C59.0772 73.0594 58.8966 73.0004 58.7365 72.9375C58.5625 72.8695 58.3663 72.9553 58.2983 73.1293C58.2302 73.3032 58.3161 73.4994 58.4901 73.5674C59.1683 73.832 60.0571 74.023 61.0705 74.1619C62.0165 75.2132 63.7154 76.7112 66.0822 76.7174C69.4235 76.7262 71.1216 74.8775 71.7261 73.9313C72.4304 73.8086 73.0795 73.6639 73.6476 73.4948C73.9388 73.4081 74.2095 73.3152 74.4555 73.2157C74.475 73.2078 74.4888 73.1932 74.5059 73.1824C74.641 73.0964 74.7043 72.9289 74.642 72.7753Z" fill="#EF7E8F"/>
<path d="M65.4044 74.4262C64.0227 74.4261 62.6757 74.3586 61.485 74.2185C61.3419 74.2016 61.209 74.1803 61.0706 74.1613C62.0166 75.2126 63.7155 76.7106 66.0823 76.7168C69.4236 76.7256 71.1217 74.8769 71.7262 73.9307C71.3242 74.0007 70.9057 74.0641 70.4712 74.1198C68.8865 74.3219 67.1192 74.4261 65.4044 74.4262Z" fill="#E16C79"/>
<path d="M118.304 142.446L115.975 135.569C113.7 126.518 111.226 118.536 109.356 116.638C104.871 112.087 92.0647 108.351 92.0647 108.351L88.9199 107.282L86.6014 106.493L82.1047 104.964L81.8974 104.894C81.8974 104.894 79.8752 111.721 73.4072 114.835C73.4017 114.837 73.3967 114.84 73.3912 114.843C72.6529 115.197 71.854 115.5 70.9967 115.742C70.3715 115.918 69.7144 116.061 69.0233 116.164C68.3321 116.267 67.6069 116.33 66.8456 116.346C63.4314 116.417 60.577 115.533 58.2464 114.254C58.0578 114.151 57.8729 114.045 57.6912 113.937C57.0341 113.545 56.4191 113.125 55.8509 112.687C55.4406 112.371 55.0533 112.046 54.6886 111.718C54.1521 111.236 53.6657 110.748 53.2265 110.269C53.04 110.065 52.8637 109.865 52.6944 109.666C52.3811 109.298 52.0987 108.943 51.844 108.605C51.7536 108.485 51.6664 108.367 51.5832 108.252C50.7065 107.04 50.2324 106.128 50.1444 105.953C50.1343 105.933 50.1293 105.923 50.1293 105.923V105.923L48.5094 106.474L48.4211 106.504L45.1698 107.61L38.1472 109.998C38.1472 109.998 30.2884 112.087 25.8042 116.638C23.9337 118.536 21.46 126.518 19.1843 135.569H19.1772L16.8486 142.446L19.4869 145.19L29.91 156.028C29.6938 158.439 29.6222 160.43 29.7484 161.798C30.2466 167.195 31.0959 173.91 32.0207 180.55C33.9899 194.688 36.3023 208.483 36.3023 208.483H99.6651C99.6651 208.483 101.654 197.654 103.264 184.927C104.514 175.053 105.534 164.038 105.221 156.051L115.672 145.184L118.304 142.446Z" fill="#E6E6E6"/>
<path d="M97.9163 69.247C97.495 66.3645 96.6714 63.5376 96.4957 60.6298C96.1882 55.5412 98.2858 50.5347 98.0598 45.4419C97.6428 36.0495 92.8814 26.7363 87.6543 20.2133C85.7138 17.3223 83.3143 14.8674 80.4697 13.22C80.2998 13.1216 80.1283 13.0257 79.9552 12.9331C75.7259 10.6717 70.5518 10.1783 64.4745 12.6202C59.7919 10.508 53.3888 11.7984 47.865 15.9999C47.8514 16.0092 47.8363 16.0161 47.8229 16.0257C44.6718 18.2451 41.5981 21.6246 39.1053 25.9008C34.5331 32.8582 30.179 42.3362 29.7545 51.8968C29.5284 56.9896 31.6261 61.9961 31.3186 67.0847C31.1429 69.9926 30.3576 72.8252 29.898 75.702C28.9595 81.5777 29.4009 87.6694 31.1769 93.3484C32.71 98.2504 35.2707 102.892 38.9741 106.45C39.748 107.194 40.7895 107.964 41.9522 108.704L45.1698 107.61L48.4211 106.504L48.5094 106.474L50.1293 105.923L51.728 105.379C54.2807 106.435 56.3257 106.919 56.4307 106.256C56.5324 105.614 55.1499 104.575 53.3864 103.033C54.1427 100.336 55.0347 95.1715 53.3594 89.0085C50.2622 86.9933 47.8206 84.1221 46.0663 80.5114C46.1196 79.4593 46.1746 78.4192 46.2169 77.3952C46.2282 77.1215 46.2381 76.8492 46.247 76.5781C46.2559 76.3033 46.2617 76.031 46.2675 75.7591C46.2732 75.49 46.2801 75.22 46.282 74.954C46.284 74.6758 46.28 74.4018 46.277 74.1271C46.274 73.8454 46.2673 73.5659 46.2582 73.2882C46.2489 73.004 46.2413 72.7187 46.2247 72.4389C46.2066 72.1323 46.1818 71.8363 46.1542 71.5447C46.1222 71.2055 46.0858 70.8735 46.0429 70.5517C45.8692 69.2463 45.615 68.0696 45.3482 66.9115C45.2717 66.5793 45.1944 66.2481 45.1174 65.9164C45.0483 65.6183 44.9798 65.319 44.9127 65.0173C44.8494 64.7327 44.7875 64.4457 44.7281 64.1547C44.6711 63.8755 44.617 63.5918 44.5653 63.3038C44.5153 63.0256 44.4678 62.7435 44.4244 62.4545C44.3828 62.1773 44.3454 61.8933 44.3111 61.604C44.2788 61.3306 44.2503 61.0509 44.2258 60.7648C44.2021 60.4884 44.181 60.2077 44.1658 59.9176C44.0477 57.686 44.192 55.0254 44.8358 51.5508C47.0194 39.7673 67.4084 38.5361 66.1835 27.5787C80.8375 26.9859 84.7825 38.2343 86.6112 47.2831C87.9308 53.8132 86.0135 59.1923 87.7875 60.8589C88.9854 59.7863 88.8857 55.9333 91.2774 55.9403C91.766 55.9417 92.193 56.0644 92.5626 56.2822C94.0282 57.146 94.5495 59.5794 94.0284 62.5835C93.6967 64.496 92.7481 65.8472 91.5296 66.6032C90.6891 67.1247 89.7213 67.3656 88.7343 67.3016C88.5476 67.2896 88.3629 67.2559 88.1806 67.2085C88.1703 67.3505 88.1561 67.4897 88.1448 67.631C88.1433 67.6501 88.1415 67.669 88.14 67.6881C88.1069 68.0959 88.0709 68.5017 88.0292 68.9033C88.0196 68.9972 88.0078 69.0895 87.9977 69.183C87.9609 69.52 87.9242 69.857 87.8812 70.1894C87.8263 70.6176 87.7664 71.0421 87.7005 71.4621C87.7003 71.463 87.7002 71.4637 87.7001 71.4645C87.618 71.9884 87.5246 72.5033 87.4255 73.0135C87.42 73.0422 87.4157 73.072 87.4101 73.1007C87.3844 73.2323 87.3544 73.3603 87.3277 73.4911C87.279 73.7266 87.2314 73.9628 87.179 74.1951C87.1659 74.2535 87.155 74.3136 87.1416 74.3718C87.0538 74.7551 86.9618 75.1348 86.8636 75.5094C86.7717 75.8608 86.6724 76.2057 86.571 76.549C86.569 76.556 86.5672 76.5631 86.5651 76.57C85.138 81.4005 82.7906 85.4219 79.3029 88.2032C77.793 97.0993 79.7171 104.032 79.7171 104.032L81.8974 104.894L82.1047 104.964L86.6014 106.493L88.9199 107.282C90.1651 106.25 91.6138 104.688 92.8762 102.803C99.8367 92.4086 99.9598 83.2275 97.9163 69.247Z" fill="#27224F"/>
<path d="M104.715 150.33C104.906 151.75 105.052 153.138 105.14 154.475C105.174 154.985 105.2 155.512 105.221 156.051L115.672 145.184L118.304 142.447L115.976 135.569C113.798 138.532 111.514 141.462 109.235 144.404L104.715 150.33Z" fill="#C9C9C9"/>
<path d="M30.5444 150.52V150.47L25.4491 143.791C23.4246 141.178 21.4036 138.572 19.4613 135.942L19.177 135.569L16.8484 142.447L19.4867 145.19L29.9098 156.029C30.0586 154.37 30.2755 152.513 30.5444 150.52Z" fill="#C9C9C9"/>
<path d="M73.4073 114.834C73.4018 114.837 73.3968 114.84 73.3913 114.843C72.653 115.197 71.8541 115.5 70.9968 115.741C70.3716 115.918 69.7145 116.061 69.0234 116.164C68.3322 116.267 67.607 116.33 66.8457 116.346C63.4315 116.417 60.5771 115.533 58.2465 114.254C58.0579 114.151 57.873 114.045 57.6913 113.936C57.0342 113.545 56.4192 113.125 55.851 112.687C55.4407 112.371 55.0534 112.046 54.6887 111.718C54.1522 111.236 53.6658 110.747 53.2266 110.269C53.0401 110.065 52.8638 109.864 52.6945 109.666C52.3812 109.298 52.0988 108.943 51.8441 108.605C51.7537 108.485 51.6665 108.367 51.5833 108.252C50.7066 107.039 50.2325 106.128 50.1445 105.953C50.1344 105.933 50.1294 105.923 50.1294 105.923L48.5095 106.474L48.4212 106.504L46.9819 106.994C50.1746 117.232 60.4633 124.356 71.7765 121.27C78.8156 119.511 82.8594 112.523 85.1901 106.013L82.1051 104.964L81.8978 104.894C81.8974 104.894 79.8753 111.721 73.4073 114.834Z" fill="#C9C9C9"/>
<path d="M29.9905 139.637L30.5515 150.469L30.5516 150.469L36.4917 128.806L33.2257 134.247L29.9905 139.637Z" fill="#B3B3B3"/>
<path d="M100.483 131.829L98.668 128.806L104.608 150.469L104.642 149.806L105.169 139.637L100.483 131.829Z" fill="#B3B3B3"/>
<path d="M48.421 106.505L48.5093 106.475L50.1292 105.923L51.7279 105.38C48.6126 104.092 44.7403 101.952 42.7047 99.9958C39.0012 96.437 36.4405 91.7958 34.9075 86.8938C33.1315 81.2148 32.69 75.1232 33.6286 69.2474C34.0881 66.3707 34.8735 63.538 35.0492 60.6302C35.3566 55.5416 33.259 50.5351 33.4851 45.4424C33.8211 37.8743 36.0168 31.199 39.1051 25.9014C34.5329 32.8588 30.1788 42.3368 29.7543 51.8973C29.5282 56.9901 31.6259 61.9966 31.3184 67.0852C31.1427 69.9931 30.3574 72.8257 29.8978 75.7025C28.9593 81.5782 29.4007 87.6699 31.1767 93.3489C32.7098 98.2509 35.2705 102.892 38.9739 106.451C39.7478 107.195 40.7893 107.965 41.952 108.705L45.1696 107.61L48.421 106.505Z" fill="#221C43"/>
<path d="M53.3594 89.0088C50.2622 86.9936 47.8206 84.1224 46.0663 80.5117C45.8357 85.0603 45.6692 89.8163 47.0196 94.3083C48.1922 98.2086 51.1075 101.041 53.3864 103.034C54.1427 100.337 55.0348 95.1717 53.3594 89.0088Z" fill="#221C43"/>
<path d="M92.8762 71.8855C92.5328 69.8458 92.0719 68.1972 91.5296 66.6035C90.6891 67.125 89.7213 67.3659 88.7343 67.3019C88.5476 67.2899 88.3629 67.2562 88.1806 67.2088C88.1703 67.3508 88.1561 67.49 88.1448 67.6313C88.1433 67.6504 88.1415 67.6693 88.14 67.6884C88.1069 68.0962 88.0709 68.502 88.0292 68.9036C88.0196 68.9975 88.0078 69.0898 87.9977 69.1833C87.9609 69.5203 87.9242 69.8573 87.8812 70.1897C87.8263 70.6179 87.7664 71.0424 87.7005 71.4624C87.7003 71.4633 87.7002 71.464 87.7001 71.4648C87.618 71.9887 87.5246 72.5036 87.4255 73.0138C87.42 73.0425 87.4157 73.0723 87.4101 73.101C87.3844 73.2326 87.3544 73.3606 87.3277 73.4914C87.279 73.7269 87.2314 73.9631 87.179 74.1954C87.1659 74.2538 87.155 74.3139 87.1416 74.3721C87.0538 74.7554 86.9618 75.1351 86.8636 75.5097C86.7717 75.8611 86.6724 76.206 86.571 76.5493C86.569 76.5563 86.5672 76.5634 86.5651 76.5703C85.138 81.4008 82.7906 85.4222 79.3029 88.2035C77.793 97.0996 79.7171 104.032 79.7171 104.032L81.8974 104.894L82.1047 104.965L86.6014 106.494C87.5482 105.003 89.3905 102.671 91.1357 98.1251C93.4986 91.9691 94.2258 79.9036 92.8762 71.8855Z" fill="#221C43"/>
</g>
</svg>
